<?xml version="1.0" encoding="utf-8"?><svg xmlns="http://www.w3.org/2000/svg" xmlns:xlink="http://www.w3.org/1999/xlink" width="3000" height="2000" preserveAspectRatio="xMidYMid" viewBox="0 0 3000 2000" style="z-index:1;margin-right:-2px;display:block;background-repeat-y:initial;background-repeat-x:initial;background-color:rgb(255, 255, 255);animation-play-state:paused" ><g transform="" style="animation-play-state:paused" ><linearGradient id="lg-0.2837942518748817" x1="0" x2="1" y1="0" y2="0" style="animation-play-state:paused" ><stop stop-color="#ff00ff" offset="0" style="animation-play-state:paused" ></stop>

  
<stop stop-color="#00ffff" offset="1" style="animation-play-state:paused" ></stop></linearGradient>
<path fill="url(#lg-0.2837942518748817)" opacity="0.4" d="M 0 0 L 0 2885.16 Q 750 2910.31 1500 2873.68 T 3000 1854.39 L 3000 0 Z" style="opacity:0.4;animation-play-state:paused" ></path>
<path fill="url(#lg-0.2837942518748817)" opacity="0.4" d="M 0 0 L 0 -175.395 Q 750 1279.11 1500 1247.01 T 3000 3157.91 L 3000 0 Z" style="opacity:0.4;animation-play-state:paused" ></path>
<path fill="url(#lg-0.2837942518748817)" opacity="0.4" d="M 0 0 L 0 1243.71 Q 750 2045.38 1500 2022.1 T 3000 2382.64 L 3000 0 Z" style="opacity:0.4;animation-play-state:paused" ></path>
<path fill="url(#lg-0.2837942518748817)" opacity="0.4" d="M 0 0 L 0 1976.87 Q 750 2950.68 1500 2923.08 T 3000 2913.66 L 3000 0 Z" style="opacity:0.4;animation-play-state:paused" ></path>
<path fill="url(#lg-0.2837942518748817)" opacity="0.4" d="M 0 0 L 0 2474.36 Q 750 2865 1500 2843.58 T 3000 1857.5 L 3000 0 Z" style="opacity:0.4;animation-play-state:paused" ></path>
<path fill="url(#lg-0.2837942518748817)" opacity="0.4" d="M 0 0 L 0 851.188 Q 750 1946.25 1500 1916.79 T 3000 2343.65 L 3000 0 Z" style="opacity:0.4;animation-play-state:paused" ></path>
<path fill="url(#lg-0.2837942518748817)" opacity="0.4" d="M 0 0 L 0 1172.46 Q 750 3063.19 1500 3039.03 T 3000 3800.09 L 3000 0 Z" style="opacity:0.4;animation-play-state:paused" ></path>
<path fill="url(#lg-0.2837942518748817)" opacity="0.4" d="M 0 0 L 0 2409.92 Q 750 1113.2 1500 1078.17 T 3000 5051.85 L 3000 0 Z" style="opacity:0.4;animation-play-state:paused" ></path>
<path fill="url(#lg-0.2837942518748817)" opacity="0.4" d="M 0 0 L 0 1322.34 Q 750 3428.35 1500 3409.22 T 3000 2504.44 L 3000 0 Z" style="opacity:0.4;animation-play-state:paused" ></path>
<path fill="url(#lg-0.2837942518748817)" opacity="0.4" d="M 0 0 L 0 749.145 Q 750 1821.85 1500 1791.2 T 3000 3747.98 L 3000 0 Z" style="opacity:0.4;animation-play-state:paused" ></path></g></svg>